<?xml version="1.0" standalone="no"?>
<!DOCTYPE svg PUBLIC "-//W3C//DTD SVG 20010904//EN"
 "http://www.w3.org/TR/2001/REC-SVG-20010904/DTD/svg10.dtd">
<svg version="1.0" xmlns="http://www.w3.org/2000/svg"
 width="500.000000pt" height="500.000000pt" viewBox="0 0 500.000000 500.000000"
 preserveAspectRatio="xMidYMid meet">

<g transform="translate(0.000000,500.000000) scale(0.100000,-0.100000)"
fill="#000000" stroke="none">
<path d="M2190 4675 c-304 -44 -650 -167 -832 -296 -14 -11 -29 -19 -33 -19
-24 0 -263 -191 -363 -289 -273 -271 -486 -635 -576 -986 -61 -241 -85 -487
-67 -702 36 -426 143 -741 368 -1074 168 -248 419 -487 678 -644 268 -163 512
-252 825 -302 130 -21 488 -23 600 -5 210 35 358 75 515 138 85 33 269 125
273 136 2 4 8 8 14 8 34 0 275 179 400 298 366 349 580 747 665 1244 22 130
25 550 5 668 -43 242 -111 458 -204 642 -34 68 -65 125 -70 126 -4 2 -8 8 -8
13 0 13 -93 152 -153 229 -353 450 -851 733 -1434 815 -130 18 -479 18 -603 0z
m-822 -1045 c108 -17 209 -35 225 -41 42 -18 61 -54 95 -183 17 -65 32 -120
34 -121 4 -4 907 -22 1528 -31 486 -7 490 -8 516 -70 16 -37 14 -45 -90 -463
-58 -234 -110 -442 -115 -461 -6 -19 -15 -57 -21 -85 -30 -129 -47 -141 -220
-149 -134 -7 -383 -19 -730 -36 -118 -6 -303 -15 -410 -21 l-195 -12 -27 -66
c-15 -36 -30 -74 -34 -83 -6 -17 34 -18 739 -18 475 0 755 -4 772 -10 42 -16
58 -38 59 -82 1 -32 -5 -45 -27 -64 l-29 -24 -809 2 -809 3 -41 41 c-64 65
-64 97 5 273 l55 144 -39 151 c-110 426 -240 934 -250 976 -18 75 -57 220 -61
224 -2 2 -86 18 -187 34 -101 17 -190 36 -199 43 -23 19 -35 59 -27 91 6 29
54 68 82 68 7 0 102 -14 210 -30z m759 -2096 c56 -45 71 -79 72 -154 1 -47 -4
-74 -18 -96 -64 -105 -211 -125 -293 -40 -88 90 -74 227 30 296 43 29 53 31
109 28 51 -3 69 -9 100 -34z m1090 0 c46 -37 83 -106 83 -154 -1 -48 -38 -117
-83 -153 -51 -42 -127 -49 -189 -17 -114 57 -143 194 -61 290 48 56 84 71 155
67 46 -3 65 -9 95 -33z"/>
<path d="M2785 3113 c-49 -17 -90 -49 -153 -116 -68 -72 -131 -142 -129 -143
1 -1 33 -4 71 -7 l69 -6 73 74 c77 79 104 95 161 95 72 0 132 -47 154 -120 20
-65 -7 -113 -139 -250 -117 -122 -153 -146 -214 -138 -39 5 -95 46 -108 79
-12 28 -16 31 -48 25 -19 -3 -43 -12 -52 -21 -25 -23 -9 -66 45 -120 75 -75
195 -96 290 -51 66 31 291 260 323 328 46 99 25 214 -53 294 -81 83 -192 113
-290 77z"/>
<path d="M2425 2759 c-55 -27 -257 -231 -291 -293 -59 -109 -24 -259 80 -337
80 -61 166 -75 262 -42 40 13 70 37 159 127 l110 111 -75 6 -75 5 -65 -62
c-77 -73 -96 -84 -149 -84 -71 0 -120 31 -146 93 -35 83 -15 126 116 259 135
136 166 149 253 107 30 -14 50 -31 61 -55 18 -38 32 -41 81 -18 51 24 45 64
-22 131 -72 72 -211 96 -299 52z"/>
</g>
</svg>
